<svg width="19" height="19" viewBox="0 0 19 19" fill="none" xmlns="http://www.w3.org/2000/svg">
<path d="M16.2751 4.62H3.52515M7.77765 3.12C7.9326 2.68085 8.21995 2.30058 8.6001 2.03159C8.98024 1.76261 9.43446 1.61816 9.90015 1.61816C10.3658 1.61816 10.8201 1.76261 11.2002 2.03159C11.5803 2.30058 11.8677 2.68085 12.0226 3.12M14.6806 11.67C14.5479 13.6605 14.4811 14.6558 13.8324 15.2625C13.1836 15.8693 12.1861 15.87 10.1904 15.87H9.6099C7.6149 15.87 6.6174 15.87 5.9679 15.2625C5.31915 14.6558 5.25315 13.6605 5.1204 11.67L4.7754 6.495M15.0249 6.495L14.8749 8.745" stroke="#EF5F5F" stroke-width="1.125" stroke-linecap="round"/>
</svg>
