<svg width="19" height="19" viewBox="0 0 19 19" fill="none" xmlns="http://www.w3.org/2000/svg">
<path d="M15.535 4.67499H2.78503M7.03753 3.17499C7.19249 2.73584 7.47984 2.35557 7.85998 2.08659C8.24013 1.8176 8.69435 1.67316 9.16003 1.67316C9.62572 1.67316 10.0799 1.8176 10.4601 2.08659C10.8402 2.35557 11.1276 2.73584 11.2825 3.17499M13.9405 11.725C13.8078 13.7155 13.741 14.7107 13.0923 15.3175C12.4435 15.9242 11.446 15.925 9.45028 15.925H8.86978C6.87478 15.925 5.87728 15.925 5.22778 15.3175C4.57903 14.7107 4.51303 13.7155 4.38028 11.725L4.03528 6.54999M14.2848 6.54999L14.1348 8.79999" stroke="#EF5F5F" stroke-width="1.125" stroke-linecap="round"/>
</svg>
