<svg width="19" height="19" viewBox="0 0 19 19" fill="none" xmlns="http://www.w3.org/2000/svg">
<path d="M3.16003 16.675H6.16003M15.16 16.675H9.16003M13.9128 6.25826L14.4693 5.70326C14.6884 5.48416 14.8623 5.22405 14.9809 4.93777C15.0995 4.65149 15.1606 4.34465 15.1606 4.03477C15.1606 3.72489 15.0996 3.41804 14.9811 3.13173C14.8625 2.84543 14.6888 2.58528 14.4697 2.36613C14.2506 2.14699 13.9905 1.97315 13.7042 1.85453C13.4179 1.73591 13.1111 1.67484 12.8012 1.6748C12.4913 1.67477 12.1844 1.73577 11.8981 1.85433C11.6118 1.97288 11.3517 2.14666 11.1325 2.36576L10.576 2.92226C10.576 2.92226 10.6458 4.10426 11.6883 5.14676C12.7308 6.18926 13.9128 6.25901 13.9128 6.25901L11.3575 8.81501M10.576 2.92151L5.46328 8.03501C5.11678 8.38151 4.94353 8.55401 4.79503 8.74526C4.61912 8.97032 4.46847 9.21404 4.34578 9.47201C4.24153 9.69026 4.16428 9.92276 4.00903 10.387L3.35278 12.3565L3.19303 12.838C3.15559 12.9501 3.15011 13.0704 3.17723 13.1854C3.20434 13.3005 3.26297 13.4057 3.34654 13.4892C3.43011 13.5728 3.53531 13.6314 3.65035 13.6586C3.76538 13.6857 3.88569 13.6802 3.99778 13.6428L4.47853 13.483M8.80003 11.3725C8.45353 11.719 8.28103 11.8915 8.08978 12.0408C7.86428 12.2168 7.62203 12.3665 7.36303 12.49C7.14478 12.5943 6.91228 12.6715 6.44803 12.826L4.47853 13.483M4.47853 13.483L3.35353 12.3573" stroke="#FF6C2F" stroke-width="1.125" stroke-linecap="round"/>
</svg>
