<svg width="19" height="19" viewBox="0 0 19 19" fill="none" xmlns="http://www.w3.org/2000/svg">
<path d="M3.90015 16.6201H6.90015M15.9001 16.6201H9.90015M14.6529 6.20333L15.2094 5.64833C15.4285 5.42923 15.6024 5.16912 15.721 4.88284C15.8396 4.59656 15.9007 4.28972 15.9007 3.97984C15.9008 3.66996 15.8398 3.36311 15.7212 3.0768C15.6027 2.7905 15.4289 2.53035 15.2098 2.3112C14.9907 2.09206 14.7306 1.91821 14.4443 1.7996C14.158 1.68098 13.8512 1.61991 13.5413 1.61987C13.2314 1.61984 12.9246 1.68084 12.6382 1.79939C12.3519 1.91795 12.0918 2.09173 11.8726 2.31083L11.3161 2.86733C11.3161 2.86733 11.3859 4.04933 12.4284 5.09183C13.4709 6.13433 14.6529 6.20408 14.6529 6.20408L12.0976 8.76008M11.3161 2.86658L6.2034 7.98008C5.8569 8.32658 5.68365 8.49908 5.53515 8.69033C5.35923 8.91539 5.20858 9.15911 5.0859 9.41708C4.98165 9.63533 4.9044 9.86783 4.74915 10.3321L4.0929 12.3016L3.93315 12.7831C3.8957 12.8952 3.89023 13.0155 3.91734 13.1305C3.94446 13.2455 4.00309 13.3507 4.08666 13.4343C4.17022 13.5179 4.27543 13.5765 4.39046 13.6036C4.50549 13.6307 4.6258 13.6253 4.7379 13.5878L5.21865 13.4281M9.54015 11.3176C9.19365 11.6641 9.02115 11.8366 8.8299 11.9858C8.6044 12.1618 8.36215 12.3116 8.10315 12.4351C7.8849 12.5393 7.6524 12.6166 7.18815 12.7711L5.21865 13.4281M5.21865 13.4281L4.09365 12.3023" stroke="#FF6C2F" stroke-width="1.125" stroke-linecap="round"/>
</svg>
