<svg width="19" height="19" viewBox="0 0 19 19" fill="none" xmlns="http://www.w3.org/2000/svg">
<path d="M7.65015 3.46516C8.37768 3.23401 9.13678 3.11762 9.90015 3.12016C13.0366 3.12016 15.1711 4.99516 16.4439 6.64816C17.0814 7.47766 17.4001 7.89091 17.4001 9.12016C17.4001 10.3502 17.0814 10.7634 16.4439 11.5922C15.1711 13.2452 13.0366 15.1202 9.90015 15.1202C6.76365 15.1202 4.62915 13.2452 3.3564 11.5922C2.7189 10.7642 2.40015 10.3494 2.40015 9.12016C2.40015 7.89016 2.7189 7.47691 3.3564 6.64816C3.74527 6.14028 4.1782 5.66769 4.65015 5.23591" stroke="#323A46" stroke-width="1.125" stroke-linecap="round"/>
<path d="M12.1501 9.12012C12.1501 9.71685 11.9131 10.2892 11.4911 10.7111C11.0692 11.1331 10.4969 11.3701 9.90015 11.3701C9.30341 11.3701 8.73111 11.1331 8.30916 10.7111C7.8872 10.2892 7.65015 9.71685 7.65015 9.12012C7.65015 8.52338 7.8872 7.95108 8.30916 7.52913C8.73111 7.10717 9.30341 6.87012 9.90015 6.87012C10.4969 6.87012 11.0692 7.10717 11.4911 7.52913C11.9131 7.95108 12.1501 8.52338 12.1501 9.12012Z" stroke="#323A46" stroke-width="1.125"/>
</svg>
