<svg width="19" height="19" viewBox="0 0 19 19" fill="none" xmlns="http://www.w3.org/2000/svg">
<path d="M6.91003 3.51997C7.63757 3.28882 8.39667 3.17243 9.16003 3.17497C12.2965 3.17497 14.431 5.04997 15.7038 6.70297C16.3413 7.53247 16.66 7.94572 16.66 9.17497C16.66 10.405 16.3413 10.8182 15.7038 11.647C14.431 13.3 12.2965 15.175 9.16003 15.175C6.02353 15.175 3.88903 13.3 2.61628 11.647C1.97878 10.819 1.66003 10.4042 1.66003 9.17497C1.66003 7.94497 1.97878 7.53172 2.61628 6.70297C3.00516 6.19509 3.43809 5.7225 3.91003 5.29072" stroke="#323A46" stroke-width="1.125" stroke-linecap="round"/>
<path d="M11.41 9.17499C11.41 9.77172 11.173 10.344 10.751 10.766C10.3291 11.1879 9.75677 11.425 9.16003 11.425C8.5633 11.425 7.991 11.1879 7.56904 10.766C7.14709 10.344 6.91003 9.77172 6.91003 9.17499C6.91003 8.57825 7.14709 8.00595 7.56904 7.584C7.991 7.16204 8.5633 6.92499 9.16003 6.92499C9.75677 6.92499 10.3291 7.16204 10.751 7.584C11.173 8.00595 11.41 8.57825 11.41 9.17499Z" stroke="#323A46" stroke-width="1.125"/>
</svg>
